<svg xmlns="http://www.w3.org/2000/svg" fill="currentColor" viewBox="0 0 24 24"><path d="M8.59 3.515A2 2 0 0 1 10.53 2h2.938a2 2 0 0 1 1.94 1.515l.352 1.405.006.009c.008.01.024.024.049.038.124.068.246.138.366.212a.163.163 0 0 0 .057.023h.011l1.393-.398a2 2 0 0 1 2.282.923l1.47 2.545a2 2 0 0 1-.342 2.438l-1.043 1.008-.004.01a.163.163 0 0 0-.009.06 7.895 7.895 0 0 1 0 .423c0 .028.005.049.009.06l.005.01 1.042 1.008a2 2 0 0 1 .342 2.438l-1.47 2.545a2 2 0 0 1-2.281.923l-1.393-.398h-.01a.165.165 0 0 0-.058.023c-.12.074-.243.145-.367.213a.167.167 0 0 0-.049.038l-.006.009-.351 1.405A2 2 0 0 1 13.469 22h-2.94a2 2 0 0 1-1.94-1.515l-.35-1.405-.007-.009a.167.167 0 0 0-.048-.038 7.892 7.892 0 0 1-.368-.213.162.162 0 0 0-.057-.023h-.01l-1.394.398a2 2 0 0 1-2.282-.923l-1.47-2.545a2 2 0 0 1 .343-2.438l1.043-1.008.004-.01a.162.162 0 0 0 .009-.06 8.14 8.14 0 0 1 0-.423.162.162 0 0 0-.009-.06l-.004-.01-1.043-1.008a2 2 0 0 1-.342-2.438l1.47-2.545a2 2 0 0 1 2.282-.923l1.393.399h.01a.164.164 0 0 0 .058-.024c.12-.074.242-.144.367-.212a.165.165 0 0 0 .048-.038.067.067 0 0 0 .006-.01l.352-1.404ZM13.468 4H10.53l-.352 1.406a2.086 2.086 0 0 1-1.04 1.318c-.092.05-.184.104-.274.16a2.086 2.086 0 0 1-1.664.242l-1.394-.399-1.47 2.545 1.044 1.009c.445.43.635 1.012.621 1.559a6.131 6.131 0 0 0 0 .32 2.085 2.085 0 0 1-.621 1.558l-1.044 1.01 1.47 2.544 1.393-.399a2.086 2.086 0 0 1 1.664.243c.09.056.182.109.276.16.48.26.89.716 1.04 1.318l.35 1.406h2.94l.351-1.406c.15-.602.56-1.057 1.04-1.318.093-.051.185-.104.275-.16a2.086 2.086 0 0 1 1.664-.243l1.394.399 1.469-2.545-1.044-1.009a2.085 2.085 0 0 1-.621-1.559 6.021 6.021 0 0 0 0-.32 2.085 2.085 0 0 1 .621-1.558l1.044-1.009-1.47-2.545-1.394.4a2.086 2.086 0 0 1-1.664-.244 6.012 6.012 0 0 0-.274-.159c-.48-.26-.89-.716-1.04-1.318L13.468 4Zm.264 7a2 2 0 1 0-3.463 2 2 2 0 0 0 3.463-2ZM10 8.536a4 4 0 1 1 4 6.928 4 4 0 0 1-4-6.928Z"/></svg>